<svg width="12" height="17" viewBox="0 0 12 17" fill="none" xmlns="http://www.w3.org/2000/svg">
<path d="M6 0C9.31191 0 12 2.76748 12 6.18616C12 7.82088 11.064 10.1106 9.55876 12.6375L9.3983 12.9043C8.78529 13.9126 8.12034 14.888 7.53767 15.6466L7.32888 15.9156C6.71792 16.6935 6.39085 17 6 17C5.56647 17 5.21214 16.6231 4.46233 15.6471L4.36462 15.5183C3.73588 14.6782 3.14751 13.806 2.6017 12.9049L2.44124 12.6375C0.935459 10.1111 0 7.82195 0 6.18616C0 2.76748 2.68861 0 6 0ZM6 15.4619C6.13474 15.3111 6.29571 15.1151 6.47416 14.8853L6.62741 14.6856C7.22839 13.8818 7.79083 13.0474 8.31268 12.1855C9.78761 9.75892 10.7143 7.5444 10.7143 6.18616C10.7143 3.51263 8.60581 1.34213 6 1.34213C3.3947 1.34213 1.28568 3.51317 1.28568 6.18616C1.28568 7.49877 2.15068 9.60968 3.53921 11.9396L3.68732 12.1855C4.20916 13.0474 4.77161 13.8818 5.37259 14.6856L5.52584 14.8853L5.64207 15.0335C5.73669 15.1521 5.82515 15.2601 5.9064 15.3545L6 15.4619ZM6 3.13147C6.79565 3.13147 7.55871 3.46142 8.12132 4.04873C8.68393 4.63604 9 5.43261 9 6.2632C9 7.09379 8.68393 7.89036 8.12132 8.47767C7.55871 9.06498 6.79565 9.39493 6 9.39493C5.20435 9.39493 4.44129 9.06498 3.87868 8.47767C3.31607 7.89036 3 7.09379 3 6.2632C3 5.43261 3.31607 4.63604 3.87868 4.04873C4.44129 3.46142 5.20435 3.13147 6 3.13147ZM6 4.4736C5.54533 4.4736 5.10929 4.66215 4.78779 4.99776C4.46629 5.33338 4.28568 5.78857 4.28568 6.2632C4.28568 6.73783 4.46629 7.19302 4.78779 7.52864C5.10929 7.86425 5.54533 8.0528 6 8.0528C6.45467 8.0528 6.89071 7.86425 7.21221 7.52864C7.53371 7.19302 7.71432 6.73783 7.71432 6.2632C7.71432 5.78857 7.53371 5.33338 7.21221 4.99776C6.89071 4.66215 6.45467 4.4736 6 4.4736Z" fill="white"/>
</svg>
