<svg width="10" height="10" viewBox="0 0 10 10" fill="none" xmlns="http://www.w3.org/2000/svg">
<path fill-rule="evenodd" clip-rule="evenodd" d="M1.01858 4.69996C0.93962 4.62099 0.832524 4.57663 0.720855 4.57663C0.609185 4.57663 0.50209 4.62099 0.423127 4.69996C0.344165 4.77892 0.299805 4.88601 0.299805 4.99768C0.299805 5.10935 0.344165 5.21645 0.423127 5.29541L4.45495 9.32905C4.49172 9.37567 4.53795 9.41396 4.59061 9.4414C4.64326 9.46884 4.70113 9.48481 4.76041 9.48824C4.81968 9.49168 4.87901 9.48251 4.93448 9.46133C4.98996 9.44016 5.04031 9.40747 5.08222 9.36541L9.14313 5.29996C9.21573 5.2199 9.25475 5.11498 9.25211 5.00694C9.24947 4.89889 9.20537 4.79601 9.12895 4.71959C9.05253 4.64317 8.94964 4.59907 8.8416 4.59643C8.73356 4.59379 8.62864 4.63281 8.54858 4.70541L5.20313 8.05268V0.930864C5.20313 0.819473 5.15888 0.712645 5.08011 0.633879C5.00135 0.555114 4.89452 0.510864 4.78313 0.510864C4.67174 0.510864 4.56491 0.555114 4.48614 0.633879C4.40738 0.712645 4.36313 0.819473 4.36313 0.930864V8.04905L1.01858 4.69996Z" fill="white"/>
</svg>
