<svg width="19" height="18" viewBox="0 0 19 18" fill="none" xmlns="http://www.w3.org/2000/svg">
<path fill-rule="evenodd" clip-rule="evenodd" d="M10.75 1.5L16.376 6.22H17.75C17.9489 6.22 18.1397 6.29902 18.2803 6.43967C18.421 6.58032 18.5 6.77109 18.5 6.97C18.5 7.16891 18.421 7.35968 18.2803 7.50033C18.1397 7.64098 17.9489 7.72 17.75 7.72H17.658L16.538 16.242C16.487 16.657 16.2835 17.0382 15.9671 17.3115C15.6507 17.5849 15.244 17.7308 14.826 17.721H3.676C3.25779 17.7306 2.85094 17.5845 2.5344 17.311C2.21786 17.0375 2.01422 16.6562 1.963 16.241L0.843 7.721H0.75C0.551088 7.721 0.360322 7.64198 0.21967 7.50133C0.0790175 7.36068 0 7.16991 0 6.971C0 6.77209 0.0790175 6.58132 0.21967 6.44067C0.360322 6.30002 0.551088 6.221 0.75 6.221H2.124L7.75 1.5C7.75 1.10218 7.90804 0.720644 8.18934 0.43934C8.47064 0.158035 8.85218 0 9.25 0C9.64782 0 10.0294 0.158035 10.3107 0.43934C10.592 0.720644 10.75 1.10218 10.75 1.5ZM9.25 3C9.515 3 9.763 2.931 9.98 2.811L14.042 6.221H4.458L8.521 2.811C8.737 2.931 8.985 3 9.25 3ZM2.355 7.72H16.145L15.051 16.046C15.038 16.146 14.968 16.221 14.827 16.221H3.675C3.535 16.221 3.464 16.146 3.451 16.046L2.355 7.72ZM13.5 9.22C13.3011 9.22 13.1103 9.29902 12.9697 9.43967C12.829 9.58032 12.75 9.77109 12.75 9.97V14.47C12.75 14.6689 12.829 14.8597 12.9697 15.0003C13.1103 15.141 13.3011 15.22 13.5 15.22C13.6989 15.22 13.8897 15.141 14.0303 15.0003C14.171 14.8597 14.25 14.6689 14.25 14.47V9.97C14.25 9.77109 14.171 9.58032 14.0303 9.43967C13.8897 9.29902 13.6989 9.22 13.5 9.22ZM9.917 9.97C9.917 9.77109 9.99602 9.58032 10.1367 9.43967C10.2773 9.29902 10.4681 9.22 10.667 9.22C10.8659 9.22 11.0567 9.29902 11.1973 9.43967C11.338 9.58032 11.417 9.77109 11.417 9.97V14.47C11.417 14.6689 11.338 14.8597 11.1973 15.0003C11.0567 15.141 10.8659 15.22 10.667 15.22C10.4681 15.22 10.2773 15.141 10.1367 15.0003C9.99602 14.8597 9.917 14.6689 9.917 14.47V9.97ZM7.833 9.22C7.63409 9.22 7.44332 9.29902 7.30267 9.43967C7.16202 9.58032 7.083 9.77109 7.083 9.97V14.47C7.083 14.6689 7.16202 14.8597 7.30267 15.0003C7.44332 15.141 7.63409 15.22 7.833 15.22C8.03191 15.22 8.22268 15.141 8.36333 15.0003C8.50398 14.8597 8.583 14.6689 8.583 14.47V9.97C8.583 9.77109 8.50398 9.58032 8.36333 9.43967C8.22268 9.29902 8.03191 9.22 7.833 9.22ZM4.25 9.97C4.25 9.77109 4.32902 9.58032 4.46967 9.43967C4.61032 9.29902 4.80109 9.22 5 9.22C5.19891 9.22 5.38968 9.29902 5.53033 9.43967C5.67098 9.58032 5.75 9.77109 5.75 9.97V14.47C5.75 14.6689 5.67098 14.8597 5.53033 15.0003C5.38968 15.141 5.19891 15.22 5 15.22C4.80109 15.22 4.61032 15.141 4.46967 15.0003C4.32902 14.8597 4.25 14.6689 4.25 14.47V9.97Z" fill="white"/>
</svg>
