<svg width="20" height="18" viewBox="0 0 20 18" fill="none" xmlns="http://www.w3.org/2000/svg">
<path fill-rule="evenodd" clip-rule="evenodd" d="M14.98 0.0296136C13.059 -0.163386 11.048 0.599614 9.818 1.94961L9.75 2.02561L9.682 1.94961C8.452 0.599614 6.442 -0.163386 4.519 0.0296136C1.821 0.299614 0 2.31661 0 5.60361C0 8.40961 3.092 12.3606 9.26 17.6716C9.39721 17.7901 9.57267 17.8548 9.75394 17.8539C9.9352 17.853 10.11 17.7865 10.246 17.6666C16.415 12.2346 19.5 8.29261 19.5 5.60361C19.5 2.31661 17.679 0.298614 14.98 0.0296136ZM9.745 16.1066L9.418 15.8196C4.135 11.1596 1.5 7.69261 1.5 5.60361C1.5 3.08661 2.738 1.71461 4.668 1.52161C6.459 1.34261 8.372 2.27461 9.079 3.68861C9.14125 3.81329 9.23701 3.91815 9.35553 3.99145C9.47405 4.06474 9.61065 4.10356 9.75 4.10356C9.88935 4.10356 10.0259 4.06474 10.1445 3.99145C10.263 3.91815 10.3587 3.81329 10.421 3.68861C11.128 2.27461 13.041 1.34261 14.831 1.52161C16.762 1.71461 18 3.08661 18 5.60361C18 7.58261 15.357 11.0536 10.072 15.8136L9.745 16.1066Z" fill="white"/>
</svg>
