<svg width="20" height="20" viewBox="0 0 20 20" fill="none" xmlns="http://www.w3.org/2000/svg">
<path d="M9.9359 1.79487C12.5897 1.79487 12.8974 1.80769 13.9487 1.84615C14.9231 1.89744 15.4487 2.05128 15.7949 2.19231C16.2564 2.3718 16.5897 2.58974 16.9359 2.9359C17.2821 3.28205 17.5 3.61538 17.6795 4.07692C17.8205 4.42308 17.9744 4.94872 18.0256 5.92308C18.0641 6.97436 18.0769 7.28205 18.0769 9.9359C18.0769 12.5897 18.0641 12.8974 18.0256 13.9487C17.9744 14.9231 17.8205 15.4487 17.6795 15.7949C17.5 16.2564 17.2821 16.5897 16.9359 16.9359C16.5897 17.2821 16.2564 17.5 15.7949 17.6795C15.4487 17.8205 14.9231 17.9744 13.9487 18.0256C12.8974 18.0641 12.5897 18.0769 9.9359 18.0769C7.28205 18.0769 6.97436 18.0641 5.92308 18.0256C4.94872 17.9744 4.42308 17.8205 4.07692 17.6795C3.61538 17.5 3.28205 17.2821 2.9359 16.9359C2.58974 16.5897 2.3718 16.2564 2.19231 15.7949C2.05128 15.4487 1.89744 14.9231 1.84615 13.9487C1.80769 12.8974 1.79487 12.5897 1.79487 9.9359C1.79487 7.28205 1.80769 6.97436 1.84615 5.92308C1.89744 4.94872 2.05128 4.42308 2.19231 4.07692C2.3718 3.61538 2.58974 3.28205 2.9359 2.9359C3.28205 2.58974 3.61538 2.3718 4.07692 2.19231C4.42308 2.05128 4.94872 1.89744 5.92308 1.84615C6.97436 1.80769 7.28205 1.79487 9.9359 1.79487ZM9.9359 0C7.24359 0 6.89744 0.0128205 5.84615 0.0641026C4.78205 0.115385 4.0641 0.282051 3.4359 0.525641C2.78205 0.782051 2.21795 1.11538 1.66667 1.66667C1.11538 2.21795 0.782051 2.78205 0.525641 3.4359C0.282051 4.0641 0.115385 4.78205 0.0641026 5.84615C0.0128205 6.89744 0 7.24359 0 9.9359C0 12.6282 0.0128205 12.9744 0.0641026 14.0256C0.115385 15.0897 0.282051 15.8077 0.525641 16.4359C0.782051 17.0897 1.11538 17.6538 1.66667 18.2051C2.21795 18.7564 2.78205 19.0897 3.4359 19.3462C4.0641 19.5897 4.78205 19.7564 5.84615 19.8077C6.89744 19.859 7.24359 19.8718 9.9359 19.8718C12.6282 19.8718 12.9744 19.859 14.0256 19.8077C15.0897 19.7564 15.8077 19.5897 16.4359 19.3462C17.0897 19.0897 17.6538 18.7564 18.2051 18.2051C18.7564 17.6538 19.0897 17.0897 19.3462 16.4359C19.5897 15.8077 19.7564 15.0897 19.8077 14.0256C19.859 12.9744 19.8718 12.6282 19.8718 9.9359C19.8718 7.24359 19.859 6.89744 19.8077 5.84615C19.7564 4.78205 19.5897 4.0641 19.3462 3.4359C19.0897 2.78205 18.7564 2.21795 18.2051 1.66667C17.6538 1.11538 17.0897 0.782051 16.4359 0.525641C15.8077 0.282051 15.0897 0.115385 14.0256 0.0641026C12.9744 0.0128205 12.6282 0 9.9359 0ZM9.9359 4.83333C7.11539 4.83333 4.83333 7.11539 4.83333 9.9359C4.83333 12.7564 7.11539 15.0385 9.9359 15.0385C12.7564 15.0385 15.0385 12.7564 15.0385 9.9359C15.0385 7.11539 12.7564 4.83333 9.9359 4.83333ZM9.9359 13.2436C8.10256 13.2436 6.62821 11.7692 6.62821 9.9359C6.62821 8.10256 8.10256 6.62821 9.9359 6.62821C11.7692 6.62821 13.2436 8.10256 13.2436 9.9359C13.2436 11.7692 11.7692 13.2436 9.9359 13.2436ZM16.4359 4.62821C16.4359 5.29487 15.8974 5.82051 15.2436 5.82051C14.5769 5.82051 14.0513 5.29487 14.0513 4.62821C14.0513 3.97436 14.5769 3.4359 15.2436 3.4359C15.8974 3.4359 16.4359 3.97436 16.4359 4.62821Z" fill="#999999"/>
</svg>
