<svg width="9" height="15" viewBox="0 0 9 15" fill="none" xmlns="http://www.w3.org/2000/svg">
<path fill-rule="evenodd" clip-rule="evenodd" d="M0 12.484H9V14.516H0V12.484ZM4.447 3.194C5.22753 3.17936 6.00092 3.34499 6.707 3.678C7.366 4 7.695 4.609 7.695 5.505V8.913C7.695 9.149 7.7 9.435 7.71 9.772C7.704 9.952 7.746 10.13 7.83 10.289C7.908 10.389 8.011 10.467 8.129 10.514V10.801H5.925C5.86754 10.6649 5.82463 10.5231 5.797 10.378C5.7706 10.229 5.75158 10.0788 5.74 9.928C5.45628 10.2213 5.13076 10.471 4.774 10.669C4.32 10.915 3.811 11.04 3.295 11.032C2.66512 11.0562 2.04777 10.8516 1.557 10.456C1.32552 10.2542 1.14327 10.0022 1.02419 9.71914C0.905119 9.4361 0.852375 9.12956 0.87 8.823C0.844618 8.42154 0.935073 8.02124 1.13061 7.6697C1.32614 7.31816 1.61853 7.03018 1.973 6.84C2.53139 6.57311 3.13406 6.41108 3.751 6.362L4.441 6.281C4.714 6.258 4.984 6.201 5.244 6.111C5.36633 6.07801 5.47471 6.00632 5.55293 5.90665C5.63116 5.80698 5.67503 5.68467 5.678 5.558C5.69032 5.43215 5.66554 5.30544 5.60673 5.19349C5.54791 5.08155 5.45763 4.98926 5.347 4.928C5.0416 4.79536 4.70946 4.73579 4.377 4.754C4.19303 4.73475 4.00708 4.75514 3.83165 4.81379C3.65623 4.87244 3.4954 4.96798 3.36 5.094C3.20533 5.29143 3.10717 5.52715 3.076 5.776H1.12C1.137 5.196 1.336 4.636 1.689 4.173C2.224 3.52 3.143 3.194 4.447 3.194ZM5.669 7.188C5.54633 7.26294 5.41673 7.3259 5.282 7.376C5.10694 7.43472 4.92733 7.47887 4.745 7.508L4.29 7.59C3.9722 7.62965 3.66269 7.71943 3.373 7.856C3.22422 7.93447 3.10094 8.0538 3.01767 8.19995C2.93441 8.34611 2.89463 8.513 2.903 8.681C2.89102 8.81509 2.91107 8.95011 2.96149 9.07494C3.01191 9.19977 3.09126 9.31084 3.193 9.399C3.395 9.55 3.642 9.628 3.893 9.621C4.323 9.623 4.743 9.494 5.098 9.253C5.466 9.007 5.656 8.56 5.671 7.91L5.669 7.188ZM9 0V2.032H0V0H9Z" fill="white"/>
</svg>
