<svg width="25" height="25" viewBox="0 0 25 25" fill="none" xmlns="http://www.w3.org/2000/svg">
<path d="M22 0H3C1.34315 0 0 1.34315 0 3V22C0 23.6569 1.34315 25 3 25H22C23.6569 25 25 23.6569 25 22V3C25 1.34315 23.6569 0 22 0Z" fill="#00529B"/>
<path d="M22.944 12.406C22.834 13.308 22.636 13.66 22.614 13.704C22.548 13.814 22.416 13.836 22.328 13.77C22.24 13.704 22.196 13.572 22.262 13.484C22.262 13.484 22.372 13.286 22.46 12.846L22.504 11.526C22.4652 11.3298 22.4062 11.1381 22.328 10.954C22.284 10.844 22.328 10.734 22.438 10.69C22.548 10.646 22.658 10.69 22.702 10.778C22.702 10.8 23.032 11.526 22.944 12.406ZM21.69 13.462C21.646 13.572 21.514 13.616 21.404 13.55C21.294 13.506 21.25 13.374 21.316 13.264C21.316 13.264 21.404 13.066 21.448 12.604L21.36 11.284C21.25 10.954 21.14 10.734 21.14 10.734C21.074 10.624 21.118 10.514 21.206 10.448C21.316 10.382 21.426 10.426 21.492 10.514C21.514 10.536 21.91 11.218 21.888 12.12C21.888 13.022 21.712 13.418 21.69 13.462ZM20.788 12.934C20.436 14.474 19.798 15.728 19.6 16.212C19.38 16.696 19.27 17.378 19.314 19.006C19.358 20.634 19.27 21.778 19.226 22.196C19.204 22.416 18.984 22.57 18.742 22.57C18.522 22.57 18.302 22.438 18.258 22.108C18.148 21.426 17.906 18.808 17.84 18.456C17.796 18.258 17.62 17.928 17.444 17.928C17.312 17.928 17.158 18.104 17.048 18.588C16.784 19.776 16.366 22.526 16.234 23.142C16.102 23.758 15.86 23.846 15.706 23.846C15.64 23.846 15.596 23.824 15.596 23.824H15.574C15.486 23.824 15.046 23.802 15.068 23.274C15.09 22.68 15.596 18.786 15.574 18.412C15.574 18.192 15.508 17.994 15.398 17.994C15.31 17.994 15.222 18.082 15.09 18.28C14.76 18.786 12.978 21.932 12.428 22.988C12.318 23.208 12.12 23.274 11.922 23.274C11.7989 23.277 11.6773 23.2466 11.57 23.186C11.394 23.076 11.24 22.68 11.328 22.416C11.394 22.152 13.286 18.038 13.55 17.532C13.726 17.202 13.66 16.85 13.418 16.85C13.308 16.85 13.132 16.938 12.956 17.158C12.362 17.796 9.85404 20.282 9.54604 20.612C9.41404 20.766 9.28204 20.832 9.15004 20.832C8.99604 20.832 8.86405 20.744 8.73205 20.634C8.51205 20.414 8.44605 20.106 8.66605 19.842C8.77605 19.71 9.54605 18.698 10.404 17.598C10.624 17.312 10.844 17.004 11.064 16.718L11.196 16.542L11.24 16.498L11.35 16.344L11.372 16.256C11.394 16.212 11.438 16.168 11.46 16.124L11.504 16.058C11.526 16.014 11.57 15.97 11.592 15.926L11.636 15.86L11.724 15.75L11.79 15.662C11.812 15.618 11.834 15.596 11.856 15.552L11.922 15.464L11.988 15.376L12.032 15.31L12.098 15.222L12.142 15.156C12.1652 15.1317 12.1805 15.1011 12.186 15.068L12.23 15.002L12.274 14.914C12.296 14.892 12.296 14.87 12.318 14.848C12.34 14.826 12.34 14.804 12.362 14.782L12.384 14.738C12.406 14.694 12.428 14.672 12.428 14.628C12.89 13.682 13.726 12.23 12.186 12.23C12.098 12.23 12.01 12.23 11.9 12.252C11.284 12.318 10.844 12.34 10.536 12.34C9.85405 12.34 9.67805 12.23 9.45805 12.164C9.15005 12.054 8.71005 11.724 8.86405 11.438C9.01805 11.152 9.78804 11.284 10.096 11.174L10.404 11.064H10.426C10.58 11.02 11.218 10.844 11.856 10.58C12.142 10.47 12.428 10.338 12.67 10.206C13.55 9.7 15.552 8.842 16.08 8.754C16.322 8.71 16.586 8.688 16.828 8.688C17.18 8.688 17.532 8.732 17.774 8.842C18.192 9.018 18.588 9.92 20.304 10.69C20.392 10.646 21.162 11.372 20.788 12.934ZM5.85004 15.75C5.27804 14.254 5.12404 12.868 5.03604 12.362C4.94804 11.856 4.66204 11.196 3.73804 9.876C3.11324 9.01307 2.54729 8.10902 2.04404 7.17C1.84604 6.796 2.44004 6.202 2.90204 6.73C3.36404 7.236 5.01404 9.282 5.27804 9.546C5.52004 9.788 6.29005 10.118 5.87205 8.996C5.43205 7.852 4.24404 5.344 4.02404 4.75C3.69404 3.892 4.17804 3.826 4.17804 3.826C4.17804 3.826 4.61804 3.496 4.92604 4.002C5.23404 4.508 6.97204 8.028 7.19204 8.336C7.41204 8.644 7.67604 8.776 7.67604 8.182C7.65404 7.566 7.41205 3.98 7.28005 2.792C7.23605 2.374 7.67604 2.154 7.89604 2.154C8.11604 2.132 8.44605 2.396 8.53405 2.638C8.62205 2.902 9.32604 7.368 9.41404 7.94C9.48004 8.512 9.98604 8.776 10.118 7.918C10.25 7.06 10.976 3.606 11.042 3.166C11.108 2.726 11.416 2.638 11.724 2.704C12.032 2.77 12.252 2.99 12.23 3.342C12.208 3.672 11.856 8.028 11.922 9.502C11.4021 9.7275 10.8651 9.91141 10.316 10.052L10.272 10.074L10.228 10.096L9.83204 10.162C9.78804 10.162 9.67805 10.162 9.61205 10.184C9.15005 10.206 8.35804 10.25 8.00604 10.932C7.83004 11.262 7.80804 11.658 7.94004 12.01C8.20404 12.692 8.93004 13.022 9.15004 13.11L9.19405 13.132C9.50205 13.264 9.83204 13.352 10.58 13.352C10.954 13.352 11.416 13.33 11.988 13.264C11.878 13.506 11.746 13.814 11.636 13.99L11.548 14.144C11.35 14.54 10.58 15.618 9.23804 17.356C8.6439 17.294 8.04398 17.3163 7.45604 17.422C7.45604 17.422 6.40004 17.246 5.85004 15.75ZM6.86204 18.522C6.81804 18.632 6.68604 18.676 6.59804 18.632C6.57604 18.61 5.82805 18.324 5.30005 17.598C4.77205 16.872 4.68405 16.454 4.66205 16.41C4.65502 16.3836 4.65342 16.356 4.65732 16.3289C4.66123 16.3018 4.67057 16.2758 4.68479 16.2524C4.699 16.2291 4.71779 16.2088 4.74003 16.1929C4.76227 16.1769 4.7875 16.1657 4.81421 16.1597C4.84091 16.1538 4.86854 16.1533 4.89544 16.1583C4.92233 16.1633 4.94794 16.1737 4.97071 16.1889C4.99349 16.204 5.01296 16.2237 5.02797 16.2465C5.04298 16.2694 5.05321 16.2951 5.05804 16.322C5.05804 16.322 5.10204 16.542 5.34404 16.938L6.22404 17.95C6.51004 18.148 6.73004 18.258 6.73004 18.258C6.86204 18.302 6.90604 18.412 6.86204 18.522ZM5.78404 19.072C5.74004 19.182 5.60804 19.204 5.49804 19.16C5.47604 19.138 4.77204 18.764 4.31004 17.994C3.84804 17.224 3.80404 16.806 3.80404 16.762C3.78204 16.652 3.87004 16.542 4.00204 16.542C4.11204 16.52 4.22204 16.608 4.22204 16.74C4.22204 16.74 4.24404 16.96 4.44204 17.378L5.21204 18.456C5.47604 18.676 5.69604 18.808 5.69604 18.808C5.78404 18.83 5.82804 18.962 5.78404 19.072Z" fill="white"/>
</svg>
