<svg width="394" height="78" viewBox="0 0 394 78" fill="none" xmlns="http://www.w3.org/2000/svg">
<path d="M17.9 35.96C19.78 35.73 21.12 35.43 21.93 35.07C23.38 34.46 24.11 33.5 24.11 32.2C24.11 30.62 23.55 29.53 22.44 28.93C21.33 28.33 19.69 28.03 17.54 28.03C15.12 28.03 13.41 28.62 12.41 29.8C11.69 30.67 11.21 31.85 10.97 33.34H1.24C1.45 29.96 2.4 27.19 4.08 25.02C6.76 21.62 11.36 19.92 17.87 19.92C22.11 19.92 25.88 20.76 29.17 22.43C32.46 24.11 34.11 27.27 34.11 31.92V49.62C34.11 50.85 34.13 52.33 34.18 54.08C34.25 55.4 34.45 56.3 34.78 56.77C35.11 57.24 35.61 57.63 36.27 57.94V59.43H25.31C25 58.65 24.79 57.92 24.67 57.24C24.55 56.55 24.46 55.78 24.39 54.91C22.99 56.42 21.38 57.71 19.55 58.77C17.37 60.02 14.9 60.65 12.14 60.65C8.63 60.65 5.72 59.65 3.44 57.66C1.15 55.67 0 52.84 0 49.18C0 44.44 1.84 41 5.53 38.88C7.55 37.72 10.52 36.9 14.44 36.4L17.9 35.96ZM24.07 40.67C23.42 41.07 22.77 41.4 22.11 41.64C21.45 41.89 20.55 42.12 19.4 42.33L17.1 42.75C14.95 43.13 13.4 43.59 12.46 44.13C10.87 45.05 10.08 46.48 10.08 48.41C10.08 50.13 10.56 51.38 11.54 52.14C12.51 52.91 13.69 53.29 15.08 53.29C17.28 53.29 19.31 52.65 21.17 51.38C23.03 50.11 23.99 47.78 24.06 44.41L24.07 40.67ZM91.21 20.99C92.86 21.65 94.36 22.81 95.71 24.46C96.79 25.81 97.53 27.46 97.9 29.42C98.13 30.72 98.25 32.62 98.25 35.12L98.18 59.44H87.85V34.87C87.85 33.41 87.61 32.2 87.14 31.26C86.24 29.47 84.59 28.57 82.18 28.57C79.39 28.57 77.47 29.73 76.41 32.04C75.87 33.27 75.6 34.74 75.6 36.47V59.44H65.44V36.46C65.44 34.17 65.21 32.51 64.73 31.47C63.88 29.6 62.22 28.68 59.74 28.68C56.86 28.68 54.92 29.61 53.93 31.47C53.39 32.53 53.12 34.11 53.12 36.21V59.43H42.89V20.92H52.69V26.55C53.94 24.55 55.12 23.12 56.23 22.27C58.19 20.76 60.73 20 63.84 20C66.79 20 69.17 20.65 70.99 21.95C72.45 23.15 73.56 24.7 74.32 26.59C75.64 24.33 77.28 22.66 79.24 21.6C81.32 20.54 83.63 20.01 86.18 20.01C87.89 20 89.56 20.33 91.21 20.99ZM132.81 21.63C135.5 22.84 137.72 24.74 139.48 27.34C141.06 29.63 142.08 32.29 142.55 35.32C142.82 37.09 142.93 39.65 142.88 42.98H114.78C114.94 46.85 116.28 49.57 118.82 51.12C120.36 52.09 122.21 52.57 124.38 52.57C126.68 52.57 128.55 51.98 129.98 50.8C130.76 50.16 131.46 49.28 132.06 48.14H142.36C142.09 50.43 140.84 52.75 138.62 55.11C135.16 58.86 130.32 60.74 124.1 60.74C118.97 60.74 114.43 59.16 110.51 55.99C106.59 52.83 104.62 47.68 104.62 40.54C104.62 33.86 106.39 28.73 109.94 25.16C113.48 21.59 118.08 19.81 123.74 19.81C127.09 19.82 130.12 20.43 132.81 21.63ZM117.72 30.34C116.29 31.81 115.4 33.8 115.03 36.31H132.41C132.23 33.63 131.33 31.6 129.72 30.21C128.11 28.82 126.12 28.13 123.74 28.13C121.15 28.14 119.14 28.87 117.72 30.34ZM169.55 19.95C169.68 19.96 169.97 19.98 170.42 20V30.34C169.78 30.27 169.22 30.22 168.72 30.2C168.22 30.18 167.82 30.16 167.52 30.16C163.46 30.16 160.74 31.48 159.34 34.13C158.56 35.62 158.17 37.91 158.17 40.99V59.43H148.01V20.85H157.64V27.58C159.2 25.01 160.56 23.25 161.71 22.31C163.6 20.73 166.05 19.94 169.07 19.94C169.26 19.93 169.42 19.93 169.55 19.95ZM177.29 20.11H187.52V59.43H177.29V20.11ZM218.99 34.69C218.8 33.25 218.32 31.95 217.53 30.8C216.4 29.24 214.63 28.47 212.24 28.47C208.83 28.47 206.5 30.16 205.25 33.53C204.59 35.32 204.26 37.7 204.26 40.66C204.26 43.48 204.59 45.75 205.25 47.47C206.46 50.68 208.73 52.28 212.06 52.28C214.43 52.28 216.1 51.65 217.1 50.37C218.09 49.1 218.7 47.45 218.91 45.41H229.21C228.97 48.48 227.86 51.38 225.88 54.12C222.71 58.53 218.03 60.74 211.81 60.74C205.6 60.74 201.03 58.9 198.1 55.22C195.17 51.54 193.71 46.76 193.71 40.9C193.71 34.28 195.33 29.13 198.56 25.45C201.79 21.77 206.26 19.93 211.95 19.93C216.79 19.93 220.75 21.01 223.84 23.19C226.92 25.36 228.75 29.2 229.31 34.69H218.99ZM251.65 35.96C253.53 35.73 254.87 35.43 255.68 35.07C257.13 34.46 257.86 33.5 257.86 32.2C257.86 30.62 257.3 29.53 256.19 28.93C255.08 28.33 253.44 28.03 251.29 28.03C248.87 28.03 247.16 28.62 246.16 29.8C245.44 30.67 244.96 31.85 244.72 33.34H234.99C235.2 29.96 236.15 27.19 237.84 25.02C240.52 21.62 245.12 19.92 251.63 19.92C255.87 19.92 259.64 20.76 262.93 22.43C266.23 24.11 267.88 27.27 267.88 31.92V49.62C267.88 50.85 267.9 52.33 267.95 54.08C268.02 55.4 268.22 56.3 268.55 56.77C268.88 57.24 269.38 57.63 270.04 57.94V59.43H259.06C258.75 58.65 258.54 57.92 258.42 57.24C258.3 56.55 258.21 55.78 258.14 54.91C256.74 56.42 255.13 57.71 253.3 58.77C251.12 60.02 248.65 60.65 245.89 60.65C242.38 60.65 239.48 59.65 237.19 57.66C234.9 55.67 233.75 52.84 233.75 49.18C233.75 44.44 235.59 41 239.28 38.88C241.3 37.72 244.27 36.9 248.2 36.4L251.65 35.96ZM257.81 40.67C257.17 41.07 256.51 41.4 255.85 41.64C255.19 41.89 254.29 42.12 253.14 42.33L250.84 42.75C248.69 43.13 247.14 43.59 246.2 44.13C244.61 45.05 243.82 46.48 243.82 48.41C243.82 50.13 244.3 51.38 245.28 52.14C246.25 52.91 247.43 53.29 248.82 53.29C251.03 53.29 253.05 52.65 254.91 51.38C256.77 50.11 257.73 47.78 257.8 44.41L257.81 40.67ZM307.93 23.06C310.46 25.15 311.72 28.61 311.72 33.45V59.43H301.38V35.96C301.38 33.93 301.11 32.37 300.57 31.29C299.59 29.31 297.71 28.32 294.95 28.32C291.55 28.32 289.22 29.77 287.96 32.67C287.3 34.21 286.97 36.16 286.97 38.55V59.44H276.88V20.92H286.65V26.55C287.94 24.57 289.17 23.14 290.32 22.27C292.39 20.71 295.01 19.93 298.18 19.93C302.16 19.93 305.41 20.97 307.93 23.06ZM335.76 35.96C337.64 35.73 338.98 35.43 339.79 35.07C341.24 34.46 341.96 33.5 341.96 32.2C341.96 30.62 341.4 29.53 340.29 28.93C339.18 28.33 337.54 28.03 335.39 28.03C332.97 28.03 331.26 28.62 330.26 29.8C329.54 30.67 329.06 31.85 328.83 33.34H319.1C319.31 29.96 320.26 27.19 321.94 25.02C324.62 21.62 329.22 19.92 335.73 19.92C339.97 19.92 343.74 20.76 347.04 22.43C350.33 24.11 351.98 27.27 351.98 31.92V49.62C351.98 50.85 352 52.33 352.05 54.08C352.12 55.4 352.32 56.3 352.65 56.77C352.98 57.24 353.48 57.63 354.14 57.94V59.43H343.17C342.86 58.65 342.65 57.92 342.53 57.24C342.41 56.55 342.32 55.78 342.25 54.91C340.85 56.42 339.24 57.71 337.41 58.77C335.23 60.02 332.76 60.65 330 60.65C326.49 60.65 323.59 59.65 321.3 57.66C319.01 55.67 317.86 52.84 317.86 49.18C317.86 44.44 319.7 41 323.39 38.88C325.41 37.72 328.38 36.9 332.31 36.4L335.76 35.96ZM341.93 40.67C341.28 41.07 340.63 41.4 339.98 41.64C339.32 41.89 338.42 42.12 337.27 42.33L334.97 42.75C332.82 43.13 331.27 43.59 330.33 44.13C328.74 45.05 327.95 46.48 327.95 48.41C327.95 50.13 328.44 51.38 329.41 52.14C330.38 52.91 331.56 53.29 332.95 53.29C335.15 53.29 337.19 52.65 339.04 51.38C340.9 50.11 341.86 47.78 341.93 44.41V40.67ZM368.68 47.11C368.89 48.9 369.36 50.18 370.07 50.93C371.33 52.27 373.65 52.95 377.04 52.95C379.03 52.95 380.61 52.66 381.79 52.07C382.96 51.48 383.55 50.6 383.55 49.41C383.55 48.28 383.08 47.42 382.13 46.83C381.19 46.24 377.67 45.23 371.58 43.79C367.19 42.7 364.11 41.35 362.31 39.72C360.52 38.11 359.62 35.8 359.62 32.78C359.62 29.22 361.02 26.16 363.82 23.59C366.62 21.03 370.57 19.75 375.65 19.75C380.47 19.75 384.41 20.71 387.44 22.63C390.48 24.55 392.22 27.88 392.67 32.59H382.58C382.44 31.29 382.07 30.27 381.48 29.51C380.37 28.14 378.47 27.45 375.8 27.45C373.6 27.45 372.03 27.79 371.1 28.48C370.17 29.16 369.7 29.97 369.7 30.89C369.7 32.05 370.2 32.89 371.19 33.4C372.18 33.94 375.69 34.87 381.72 36.2C385.74 37.14 388.75 38.57 390.76 40.48C392.74 42.41 393.73 44.83 393.73 47.74C393.73 51.56 392.3 54.68 389.46 57.1C386.61 59.52 382.21 60.73 376.25 60.73C370.17 60.73 365.69 59.45 362.79 56.89C359.89 54.33 358.45 51.07 358.45 47.1H368.68V47.11ZM0.0699999 0H393.07V9.92H0.0699999V0ZM0.0699999 67.76H393.07V77.68H0.0699999V67.76Z" fill="white"/>
</svg>
