<svg width="152" height="30" viewBox="0 0 152 30" fill="none" xmlns="http://www.w3.org/2000/svg">
<path d="M6.9012 13.8641C7.62602 13.7754 8.14265 13.6598 8.45494 13.521C9.01398 13.2858 9.29542 12.9157 9.29542 12.4145C9.29542 11.8053 9.07952 11.3851 8.65157 11.1537C8.22361 10.9224 7.59133 10.8067 6.76241 10.8067C5.8294 10.8067 5.17012 11.0342 4.78458 11.4892C4.50699 11.8246 4.32193 12.2795 4.2294 12.854H0.478072C0.559036 11.5508 0.925301 10.4829 1.57301 9.64626C2.60626 8.33542 4.37976 7.68 6.88964 7.68C8.52434 7.68 9.97783 8.00386 11.2463 8.64771C12.5147 9.29542 13.1508 10.5137 13.1508 12.3065V19.1306C13.1508 19.6048 13.1586 20.1754 13.1778 20.8501C13.2048 21.359 13.2819 21.706 13.4092 21.8872C13.5364 22.0684 13.7292 22.2188 13.9836 22.3383V22.9128H9.75807C9.63855 22.612 9.55759 22.3306 9.51132 22.0684C9.46506 21.8024 9.43036 21.5055 9.40337 21.1701C8.86361 21.7523 8.24289 22.2496 7.53735 22.6583C6.69687 23.1402 5.74458 23.3831 4.68048 23.3831C3.32723 23.3831 2.2053 22.9976 1.32626 22.2304C0.443373 21.4631 0 20.372 0 18.961C0 17.1335 0.709397 15.8072 2.13205 14.9899C2.91084 14.5426 4.0559 14.2265 5.56723 14.0337L6.9012 13.8641ZM9.28 15.68C9.0294 15.8342 8.7788 15.9614 8.52434 16.054C8.26988 16.1504 7.92289 16.239 7.47952 16.32L6.59277 16.4819C5.76386 16.6284 5.16626 16.8058 4.80386 17.014C4.19084 17.3687 3.88626 17.92 3.88626 18.6641C3.88626 19.3272 4.07133 19.8092 4.44916 20.1022C4.82313 20.399 5.27807 20.5455 5.81398 20.5455C6.66217 20.5455 7.44482 20.2988 8.16193 19.8092C8.87904 19.3195 9.24916 18.4212 9.27614 17.1219L9.28 15.68ZM35.1653 8.09253C35.8014 8.34699 36.3798 8.79422 36.9002 9.43036C37.3166 9.95084 37.6019 10.587 37.7446 11.3427C37.8332 11.8439 37.8795 12.5764 37.8795 13.5402L37.8525 22.9166H33.8699V13.4439C33.8699 12.881 33.7773 12.4145 33.5961 12.052C33.2492 11.3619 32.613 11.0149 31.6839 11.0149C30.6082 11.0149 29.8679 11.4622 29.4593 12.3528C29.2511 12.827 29.147 13.3937 29.147 14.0607V22.9166H25.2299V14.0569C25.2299 13.174 25.1412 12.534 24.9561 12.133C24.6284 11.412 23.9884 11.0573 23.0323 11.0573C21.9219 11.0573 21.174 11.4159 20.7923 12.133C20.5841 12.5417 20.48 13.1508 20.48 13.9605V22.9128H16.5359V8.06554H20.3142V10.2361C20.7961 9.46506 21.2511 8.91373 21.679 8.58602C22.4347 8.00386 23.414 7.71084 24.613 7.71084C25.7504 7.71084 26.6679 7.96145 27.3696 8.46265C27.9325 8.9253 28.3605 9.52289 28.6535 10.2516C29.1624 9.38024 29.7947 8.73639 30.5504 8.32771C31.3523 7.91904 32.2429 7.7147 33.226 7.7147C33.8853 7.71084 34.5292 7.83807 35.1653 8.09253ZM51.2039 8.33928C52.241 8.80578 53.0969 9.53831 53.7754 10.5407C54.3846 11.4236 54.7778 12.4492 54.959 13.6173C55.0631 14.2998 55.1055 15.2867 55.0863 16.5706H44.2525C44.3142 18.0626 44.8308 19.1113 45.8101 19.7089C46.4039 20.0829 47.1171 20.268 47.9537 20.268C48.8405 20.268 49.5614 20.0405 50.1128 19.5855C50.4135 19.3388 50.6834 18.9995 50.9147 18.56H54.8858C54.7817 19.4429 54.2998 20.3373 53.4439 21.2472C52.1099 22.693 50.2439 23.4178 47.8458 23.4178C45.8679 23.4178 44.1176 22.8087 42.6063 21.5865C41.0949 20.3682 40.3354 18.3826 40.3354 15.6299C40.3354 13.0545 41.0178 11.0766 42.3865 9.70024C43.7513 8.32386 45.5248 7.63759 47.707 7.63759C48.9986 7.64145 50.1667 7.87663 51.2039 8.33928ZM45.386 11.6973C44.8347 12.2641 44.4916 13.0313 44.3489 13.999H51.0496C50.9802 12.9658 50.6333 12.1831 50.0125 11.6472C49.3918 11.1113 48.6246 10.8453 47.707 10.8453C46.7084 10.8492 45.9335 11.1306 45.386 11.6973ZM65.3687 7.69157C65.4188 7.69542 65.5306 7.70313 65.7041 7.71084V11.6973C65.4573 11.6704 65.2414 11.6511 65.0487 11.6434C64.8559 11.6357 64.7017 11.628 64.586 11.628C63.0207 11.628 61.972 12.1369 61.4323 13.1586C61.1316 13.733 60.9812 14.6159 60.9812 15.8034V22.9128H57.0641V8.03855H60.7769V10.6333C61.3783 9.64241 61.9026 8.96385 62.346 8.60145C63.0747 7.99229 64.0193 7.68771 65.1836 7.68771C65.2569 7.68386 65.3186 7.68386 65.3687 7.69157ZM68.3528 7.75325H72.2969V22.9128H68.3528V7.75325ZM84.4299 13.3745C84.3566 12.8193 84.1716 12.3181 83.867 11.8747C83.4313 11.2733 82.7489 10.9764 81.8275 10.9764C80.5128 10.9764 79.6145 11.628 79.1325 12.9272C78.8781 13.6173 78.7508 14.5349 78.7508 15.6761C78.7508 16.7634 78.8781 17.6386 79.1325 18.3017C79.599 19.5393 80.4742 20.1561 81.7581 20.1561C82.6718 20.1561 83.3157 19.9133 83.7012 19.4198C84.0829 18.9301 84.3181 18.294 84.399 17.5075H88.3701C88.2776 18.6911 87.8496 19.8092 87.0863 20.8655C85.8641 22.5658 84.0598 23.4178 81.6617 23.4178C79.2675 23.4178 77.5055 22.7084 76.3759 21.2896C75.2463 19.8708 74.6834 18.028 74.6834 15.7687C74.6834 13.2164 75.3079 11.2308 76.5532 9.81205C77.7986 8.39325 79.5219 7.68386 81.7157 7.68386C83.5817 7.68386 85.1084 8.10024 86.2998 8.94072C87.4872 9.77735 88.1928 11.2578 88.4087 13.3745H84.4299ZM97.0217 13.8641C97.7465 13.7754 98.2631 13.6598 98.5754 13.521C99.1345 13.2858 99.4159 12.9157 99.4159 12.4145C99.4159 11.8053 99.2 11.3851 98.772 11.1537C98.3441 10.9224 97.7118 10.8067 96.8829 10.8067C95.9499 10.8067 95.2906 11.0342 94.9051 11.4892C94.6275 11.8246 94.4424 12.2795 94.3499 12.854H90.5985C90.6795 11.5508 91.0458 10.4829 91.6973 9.64626C92.7306 8.33542 94.5041 7.68 97.014 7.68C98.6487 7.68 100.102 8.00386 101.371 8.64771C102.643 9.29542 103.279 10.5137 103.279 12.3065V19.1306C103.279 19.6048 103.287 20.1754 103.306 20.8501C103.333 21.359 103.41 21.706 103.537 21.8872C103.665 22.0684 103.857 22.2188 104.112 22.3383V22.9128H99.8785C99.759 22.612 99.6781 22.3306 99.6318 22.0684C99.5855 21.8024 99.5508 21.5055 99.5238 21.1701C98.9841 21.7523 98.3634 22.2496 97.6578 22.6583C96.8173 23.1402 95.8651 23.3831 94.801 23.3831C93.4477 23.3831 92.3296 22.9976 91.4467 22.2304C90.5639 21.4631 90.1205 20.372 90.1205 18.961C90.1205 17.1335 90.8299 15.8072 92.2525 14.9899C93.0313 14.5426 94.1764 14.2265 95.6916 14.0337L97.0217 13.8641ZM99.3966 15.68C99.1499 15.8342 98.8954 15.9614 98.641 16.054C98.3865 16.1504 98.0395 16.239 97.5961 16.32L96.7094 16.4819C95.8805 16.6284 95.2829 16.8058 94.9205 17.014C94.3075 17.3687 94.0029 17.92 94.0029 18.6641C94.0029 19.3272 94.1879 19.8092 94.5658 20.1022C94.9398 20.399 95.3947 20.5455 95.9306 20.5455C96.7826 20.5455 97.5614 20.2988 98.2786 19.8092C98.9957 19.3195 99.3658 18.4212 99.3928 17.1219L99.3966 15.68ZM118.72 8.8906C119.695 9.69638 120.181 11.0304 120.181 12.8964V22.9128H116.195V13.8641C116.195 13.0814 116.091 12.48 115.882 12.0636C115.505 11.3002 114.78 10.9186 113.716 10.9186C112.405 10.9186 111.506 11.4776 111.021 12.5957C110.766 13.1894 110.639 13.9412 110.639 14.8626V22.9166H106.749V8.06554H110.516V10.2361C111.013 9.47277 111.487 8.92145 111.931 8.58602C112.729 7.98458 113.739 7.68386 114.961 7.68386C116.495 7.68386 117.748 8.08482 118.72 8.8906ZM129.45 13.8641C130.174 13.7754 130.691 13.6598 131.003 13.521C131.562 13.2858 131.84 12.9157 131.84 12.4145C131.84 11.8053 131.624 11.3851 131.196 11.1537C130.768 10.9224 130.136 10.8067 129.307 10.8067C128.374 10.8067 127.715 11.0342 127.329 11.4892C127.052 11.8246 126.866 12.2795 126.778 12.854H123.027C123.107 11.5508 123.474 10.4829 124.121 9.64626C125.155 8.33542 126.928 7.68 129.438 7.68C131.073 7.68 132.526 8.00386 133.799 8.64771C135.067 9.29542 135.703 10.5137 135.703 12.3065V19.1306C135.703 19.6048 135.711 20.1754 135.73 20.8501C135.757 21.359 135.834 21.706 135.961 21.8872C136.089 22.0684 136.281 22.2188 136.536 22.3383V22.9128H132.306C132.187 22.612 132.106 22.3306 132.06 22.0684C132.013 21.8024 131.979 21.5055 131.952 21.1701C131.412 21.7523 130.791 22.2496 130.086 22.6583C129.245 23.1402 128.293 23.3831 127.229 23.3831C125.876 23.3831 124.758 22.9976 123.875 22.2304C122.992 21.4631 122.548 20.372 122.548 18.961C122.548 17.1335 123.258 15.8072 124.68 14.9899C125.459 14.5426 126.604 14.2265 128.12 14.0337L129.45 13.8641ZM131.828 15.68C131.578 15.8342 131.327 15.9614 131.077 16.054C130.822 16.1504 130.475 16.239 130.032 16.32L129.145 16.4819C128.316 16.6284 127.719 16.8058 127.356 17.014C126.743 17.3687 126.439 17.92 126.439 18.6641C126.439 19.3272 126.627 19.8092 127.001 20.1022C127.375 20.399 127.83 20.5455 128.366 20.5455C129.214 20.5455 130.001 20.2988 130.714 19.8092C131.431 19.3195 131.801 18.4212 131.828 17.1219V15.68ZM142.142 18.1629C142.223 18.853 142.404 19.3465 142.678 19.6357C143.163 20.1523 144.058 20.4145 145.365 20.4145C146.132 20.4145 146.741 20.3026 147.196 20.0752C147.647 19.8477 147.875 19.5084 147.875 19.0496C147.875 18.614 147.693 18.2824 147.327 18.0549C146.965 17.8275 145.608 17.4381 143.26 16.8829C141.567 16.4626 140.38 15.9422 139.686 15.3137C138.996 14.693 138.649 13.8024 138.649 12.6381C138.649 11.2655 139.188 10.0858 140.268 9.09494C141.347 8.10795 142.87 7.61446 144.829 7.61446C146.687 7.61446 148.206 7.98458 149.374 8.72482C150.547 9.46506 151.217 10.7489 151.391 12.5648H147.501C147.447 12.0636 147.304 11.6704 147.077 11.3773C146.649 10.8492 145.916 10.5831 144.887 10.5831C144.039 10.5831 143.433 10.7142 143.075 10.9802C142.716 11.2424 142.535 11.5547 142.535 11.9094C142.535 12.3566 142.728 12.6805 143.109 12.8771C143.491 13.0853 144.844 13.4439 147.169 13.9566C148.719 14.319 149.88 14.8704 150.654 15.6067C151.418 16.3508 151.8 17.2839 151.8 18.4058C151.8 19.8786 151.248 21.0814 150.153 22.0145C149.054 22.9475 147.358 23.414 145.06 23.414C142.716 23.414 140.989 22.9205 139.871 21.9335C138.753 20.9465 138.198 19.6896 138.198 18.159H142.142V18.1629ZM0.0269879 0H151.545V3.82458H0.0269879V0ZM0.0269879 26.1243H151.545V29.9489H0.0269879V26.1243Z" fill="#F80032"/>
</svg>
