<svg width="10" height="19" viewBox="0 0 10 19" fill="none" xmlns="http://www.w3.org/2000/svg">
<path d="M9.68092 17.0039C9.81577 17.1484 9.88926 17.3395 9.88588 17.537C9.8825 17.7346 9.80251 17.9231 9.6628 18.0628C9.52309 18.2025 9.33457 18.2825 9.13702 18.2859C8.93947 18.2893 8.74833 18.2158 8.60392 18.0809L0.223919 9.70094L0.222919 9.69994C0.0802096 9.55707 4.95911e-05 9.36338 4.95911e-05 9.16144C4.95911e-05 8.9595 0.0802096 8.76582 0.222919 8.62294L8.60392 0.241943C8.67371 0.167202 8.75784 0.107274 8.85128 0.0657291C8.94472 0.0241841 9.04557 0.00187146 9.14782 0.00012207C9.25006 -0.00162732 9.35161 0.0172216 9.44642 0.0555458C9.54123 0.09387 9.62736 0.150886 9.69967 0.223196C9.77198 0.295506 9.82899 0.38163 9.86732 0.476439C9.90564 0.571247 9.92449 0.672801 9.92274 0.775047C9.92099 0.877294 9.89868 0.978141 9.85713 1.07158C9.81559 1.16502 9.75566 1.24915 9.68092 1.31894L1.83892 9.16094L9.68092 17.0039Z" fill="#F80032"/>
</svg>
