<svg width="11" height="19" viewBox="0 0 11 19" fill="none" xmlns="http://www.w3.org/2000/svg">
<path d="M0.897206 1.65804C0.762356 1.51364 0.68887 1.32249 0.69225 1.12494C0.69563 0.927389 0.775612 0.738873 0.915323 0.599161C1.05503 0.45945 1.24355 0.379468 1.4411 0.376088C1.63866 0.372708 1.8298 0.446194 1.97421 0.581044L10.3542 8.96105L10.3552 8.96204C10.4979 9.10492 10.5781 9.2986 10.5781 9.50054C10.5781 9.70249 10.4979 9.89617 10.3552 10.039L1.97421 18.42C1.90441 18.4948 1.82029 18.5547 1.72685 18.5963C1.6334 18.6378 1.53256 18.6601 1.43031 18.6619C1.32806 18.6636 1.22651 18.6448 1.1317 18.6064C1.03689 18.5681 0.950768 18.5111 0.878458 18.4388C0.806149 18.3665 0.749133 18.2804 0.710809 18.1855C0.672484 18.0907 0.653636 17.9892 0.655385 17.8869C0.657134 17.7847 0.679446 17.6838 0.720992 17.5904C0.762537 17.497 0.822465 17.4128 0.897206 17.343L8.73921 9.50105L0.897206 1.65804Z" fill="#F80032"/>
</svg>
