<svg width="23" height="23" viewBox="0 0 23 23" fill="none" xmlns="http://www.w3.org/2000/svg">
<path d="M16.4343 9.38949C16.4343 7.99644 16.0213 6.63467 15.2476 5.47639C14.4738 4.31811 13.374 3.41534 12.0873 2.88224C10.8006 2.34915 9.3847 2.20966 8.01872 2.48143C6.65274 2.7532 5.39801 3.42402 4.41319 4.40906C3.42837 5.3941 2.7577 6.64911 2.48599 8.01539C2.21428 9.38168 2.35374 10.7979 2.88671 12.0849C3.41969 13.3719 4.32226 14.4719 5.48029 15.2459C6.63831 16.0198 7.99977 16.4329 9.39252 16.4329C11.2583 16.4271 13.0461 15.6832 14.3655 14.3635C15.6848 13.0439 16.4286 11.2557 16.4343 9.38949ZM16.7849 15.14L22.6568 21.0133C22.7653 21.1211 22.8515 21.2492 22.9104 21.3904C22.9693 21.5315 22.9997 21.6829 23 21.8359C23.0003 21.9888 22.9703 22.1403 22.9119 22.2817C22.8536 22.423 22.7678 22.5515 22.6597 22.6596C22.5516 22.7678 22.4232 22.8535 22.2818 22.9119C22.1405 22.9703 21.9891 23.0003 21.8361 23C21.6832 22.9997 21.5319 22.9693 21.3907 22.9104C21.2496 22.8515 21.1215 22.7653 21.0138 22.6567L15.1418 16.7835C13.5156 18.0974 11.4829 18.8045 9.39252 18.7834C7.53543 18.7839 5.71988 18.2337 4.17545 17.2022C2.63102 16.1707 1.42707 14.7043 0.715862 12.9884C0.00465289 11.2725 -0.18188 9.38424 0.179853 7.56232C0.541586 5.7404 1.43534 4.06669 2.74809 2.75283C4.06084 1.43897 5.73362 0.54398 7.55491 0.181033C9.3762 -0.181914 11.2642 0.00348546 12.9801 0.713785C14.6961 1.42409 16.1629 2.62738 17.1951 4.17152C18.2274 5.71565 18.7786 7.53126 18.7792 9.38876C18.8031 11.4792 18.0979 13.5127 16.7849 15.1393V15.14Z" fill="#F80032"/>
</svg>
