<svg width="23" height="21" viewBox="0 0 23 21" fill="none" xmlns="http://www.w3.org/2000/svg">
<path fill-rule="evenodd" clip-rule="evenodd" d="M18.7832 1.76735e-05C19.4365 1.76735e-05 20.0076 0.292713 20.3835 0.765235L22.7968 6.12367C22.9039 6.33602 22.9575 6.54837 22.9575 6.76071V9.94976C22.9575 10.8393 22.4352 11.6084 21.6815 11.9661V19.515C21.6815 19.7687 21.5807 20.012 21.4013 20.1913C21.2219 20.3707 20.9786 20.4715 20.725 20.4715C20.4713 20.4715 20.228 20.3707 20.0486 20.1913C19.8692 20.012 19.7684 19.7687 19.7684 19.515V12.1813H14.0293V18.0161C14.0293 19.3725 13.0307 20.4715 11.7977 20.4715H3.50757C2.27461 20.4715 1.276 19.3715 1.276 18.0171V11.9661C0.894284 11.7852 0.571742 11.4997 0.345865 11.1428C0.119988 10.7859 5.25622e-05 10.3722 0 9.94976L0 6.76071C0 6.54837 0.0535652 6.33602 0.158783 6.12367L2.55965 0.765235C2.75445 0.525087 3.00062 0.33168 3.28005 0.199251C3.55948 0.0668208 3.86504 -0.00126064 4.17426 1.76735e-05H18.7832ZM20.725 10.2683C20.901 10.2683 21.0435 10.1248 21.0435 9.94976V7.39871H17.6957V10.2683H20.725ZM20.4112 5.48567L18.8023 1.91402H4.17426C4.16278 1.91402 4.1513 1.91402 4.14174 1.91593L2.54148 5.48567H20.4112ZM12.4357 7.39871H15.7836V10.2683H12.4348V7.39871H12.4357ZM10.5227 7.39871H7.17391V10.2683H10.5217V7.39871H10.5227ZM5.26183 7.39871H1.91304V9.94976C1.91304 10.1258 2.05557 10.2683 2.23157 10.2683H5.26087L5.26183 7.39871ZM3.18904 12.2158H12.1163V18.0171C12.1163 18.3538 11.9307 18.5585 11.7977 18.5585H3.50757C3.37365 18.5585 3.18904 18.3538 3.18904 18.0171V12.2158Z" fill="white"/>
</svg>
