<svg width="18" height="20" viewBox="0 0 18 20" fill="none" xmlns="http://www.w3.org/2000/svg">
<path d="M9.1283 0.017C10.2193 0 11.3033 0.01 12.3873 0C12.4203 1.30077 12.9407 2.5417 13.8453 3.477C14.8235 4.35451 16.0672 4.87939 17.3783 4.968V8.324C16.1687 8.29698 14.9776 8.02233 13.8783 7.517C13.4087 7.29373 12.9571 7.03463 12.5273 6.742C12.5213 9.177 12.5373 11.609 12.5113 14.034C12.4485 15.2125 12.0582 16.3501 11.3843 17.319C10.8309 18.1199 10.0966 18.7793 9.24101 19.2436C8.38538 19.708 7.43243 19.9644 6.4593 19.992C5.2664 20.0477 4.08362 19.7499 3.0593 19.136C2.21607 18.6351 1.5019 17.9436 0.973991 17.117C0.446084 16.2904 0.11912 15.3517 0.0192963 14.376C-0.0024949 13.963 -0.00583155 13.5493 0.0092963 13.136C0.0946863 12.2813 0.354521 11.4531 0.772733 10.7028C1.19094 9.95248 1.75864 9.29594 2.44071 8.77377C3.12278 8.2516 3.90472 7.87491 4.73818 7.667C5.57164 7.45909 6.43889 7.42437 7.2863 7.565C7.3033 8.799 7.2533 10.033 7.2533 11.265C6.897 11.1403 6.51959 11.0872 6.14272 11.1087C5.76585 11.1302 5.39694 11.226 5.05716 11.3904C4.71738 11.5549 4.41342 11.7848 4.16273 12.067C3.91203 12.3493 3.71954 12.6782 3.5963 13.035C3.46728 13.4696 3.42882 13.926 3.4833 14.376C3.57508 14.9483 3.83951 15.479 4.24118 15.8969C4.64285 16.3149 5.1626 16.6001 5.73086 16.7145C6.29912 16.829 6.88876 16.7671 7.42088 16.5371C7.95299 16.3072 8.40217 15.9202 8.7083 15.428C8.89302 15.1651 9.01045 14.8609 9.0503 14.542C9.1323 13.051 9.0993 11.567 9.1093 10.076C9.1163 6.716 9.0993 3.366 9.1253 0.017H9.1283Z" fill="#999999"/>
</svg>
