<svg width="20" height="17" viewBox="0 0 20 17" fill="none" xmlns="http://www.w3.org/2000/svg">
<path d="M19.9686 1.93794C19.2251 2.26255 18.4293 2.48244 17.6126 2.58716C18.4712 2.07407 19.1099 1.25731 19.4136 0.304433C18.6073 0.786108 17.7277 1.12119 16.8168 1.2992C15.5393 -0.0620594 13.5183 -0.386667 11.8848 0.482443C10.2513 1.36202 9.41361 3.2259 9.84293 5.03742C6.5445 4.86988 3.47644 3.32014 1.39267 0.754694C0.303665 2.62904 0.858639 5.02695 2.65969 6.23113C2.01047 6.21019 1.37173 6.03218 0.806283 5.71804C0.78534 7.68663 2.15707 9.40391 4.09424 9.79134C3.74869 9.88558 3.3822 9.92747 3.01571 9.92747C2.75393 9.92747 2.50262 9.90653 2.24084 9.85417C2.77487 11.5191 4.31414 12.6605 6.06283 12.6919C4.6178 13.8332 2.82723 14.451 0.984293 14.451C0.649215 14.472 0.324607 14.472 0 14.451C1.87435 15.6552 4.06283 16.294 6.29319 16.294C9.3822 16.3149 12.3665 15.0898 14.555 12.9013C16.7435 10.7128 17.9686 7.72852 17.9476 4.63951V4.10548C18.7435 3.50862 19.4346 2.77564 19.9686 1.93794Z" fill="#999999"/>
</svg>
