<svg width="32" height="32" viewBox="0 0 32 32" fill="none" xmlns="http://www.w3.org/2000/svg">
<path d="M3.92969 3.92566H27.3592V27.3314H3.92969V3.92566Z" fill="white" fill-opacity="0.01"/>
<path fill-rule="evenodd" clip-rule="evenodd" d="M15.6442 7.82605C16.1569 7.82569 16.6646 7.92632 17.1383 8.12219C17.612 8.31807 18.0426 8.60534 18.4053 8.96762C18.768 9.3299 19.0557 9.76008 19.2522 10.2336C19.4486 10.7071 19.5498 11.2147 19.5501 11.7273C19.5498 12.2399 19.4486 12.7475 19.2522 13.221C19.0557 13.6945 18.768 14.1247 18.4053 14.487C18.0426 14.8493 17.612 15.1366 17.1383 15.3324C16.6646 15.5283 16.1569 15.6289 15.6442 15.6286C14.6092 15.6288 13.6165 15.2179 12.8844 14.4863C12.1523 13.7547 11.7407 12.7623 11.7402 11.7273C11.7407 10.6923 12.1523 9.69987 12.8844 8.96827C13.6165 8.23667 14.6092 7.82581 15.6442 7.82605ZM15.6442 9.28891C15.3238 9.28867 15.0065 9.35156 14.7104 9.47398C14.4143 9.5964 14.1452 9.77596 13.9185 10.0024C13.6918 10.2288 13.512 10.4977 13.3892 10.7937C13.2665 11.0896 13.2032 11.4069 13.2031 11.7273C13.2032 12.0477 13.2665 12.365 13.3892 12.6609C13.512 12.9569 13.6918 13.2258 13.9185 13.4522C14.1452 13.6787 14.4143 13.8582 14.7104 13.9806C15.0065 14.1031 15.3238 14.1659 15.6442 14.1657C15.9647 14.1659 16.282 14.1031 16.5781 13.9806C16.8742 13.8582 17.1433 13.6787 17.37 13.4522C17.5966 13.2258 17.7765 12.9569 17.8993 12.6609C18.022 12.365 18.0853 12.0477 18.0854 11.7273C18.0853 11.4069 18.022 11.0896 17.8993 10.7937C17.7765 10.4977 17.5966 10.2288 17.37 10.0024C17.1433 9.77596 16.8742 9.5964 16.5781 9.47398C16.282 9.35156 15.9647 9.28867 15.6442 9.28891ZM15.6442 17.0914C16.9956 17.0914 18.8717 17.5303 20.3757 18.2251C22.2682 19.0983 23.455 20.2786 23.455 21.7232C23.455 22.6658 22.6897 23.4302 21.7462 23.4302H9.54321C9.31885 23.4304 9.09664 23.3864 8.88928 23.3008C8.68192 23.2151 8.49347 23.0894 8.33469 22.9309C8.17592 22.7724 8.04994 22.5841 7.96394 22.3769C7.87794 22.1697 7.83362 21.9476 7.8335 21.7232C7.8335 20.2786 9.02207 19.0992 10.9137 18.2251C12.4177 17.5303 14.2929 17.0914 15.6442 17.0914ZM15.6442 18.5543C14.5005 18.5543 12.831 18.952 11.5281 19.5536C10.0013 20.2576 9.2991 21.0293 9.2991 21.7232C9.2991 21.8585 9.40881 21.9673 9.54321 21.9673H21.7453C21.8806 21.9673 21.9894 21.8576 21.9894 21.7232C21.9894 21.0283 21.2854 20.2576 19.7604 19.5536C18.4575 18.952 16.7889 18.5543 15.6442 18.5543Z" fill="white"/>
<path d="M15.6441 30.2571C23.7318 30.2571 30.2882 23.7077 30.2882 15.6286C30.2882 7.54943 23.7318 1 15.6441 1C7.55639 1 1 7.54943 1 15.6286C1 23.7077 7.55639 30.2571 15.6441 30.2571Z" stroke="white" stroke-width="1.82857"/>
</svg>
