<svg width="24" height="17" viewBox="0 0 24 17" fill="none" xmlns="http://www.w3.org/2000/svg">
<path d="M23.3451 2.60563C23.0704 1.57746 22.2606 0.774648 21.2394 0.5C19.3803 3.35801e-08 11.9225 0 11.9225 0C11.9225 0 4.46479 3.35801e-08 2.60563 0.5C1.58451 0.767606 0.774648 1.57746 0.5 2.60563C3.35801e-08 4.46479 0 8.34507 0 8.34507C0 8.34507 3.35801e-08 12.2254 0.5 14.0845C0.774648 15.1127 1.58451 15.9155 2.60563 16.1901C4.46479 16.6901 11.9225 16.6901 11.9225 16.6901C11.9225 16.6901 19.3803 16.6901 21.2394 16.1901C22.2676 15.9155 23.0704 15.1056 23.3451 14.0845C23.8451 12.2254 23.8451 8.34507 23.8451 8.34507C23.8451 8.34507 23.8451 4.46479 23.3451 2.60563ZM9.54225 11.9225V4.76761L15.7394 8.34507L9.54225 11.9225Z" fill="#999999"/>
</svg>
